{"title":"Geordie.Shore.S08E06 1080P WEB-DL","uid":10907176,"size":1598938970,"categoryP":"video","categoryS":"hd___tv_shows","magnet":"?xt=urn:btih:a6d684bcc8e598dd6bc0734f10f1fd982e2f8778&amp;dn=Geordie.Shore.S08E06+1080P+WEB-DL&amp;tr=udp%3A%2F%2Ftracker.openbittorrent.com%3A80&amp;tr=udp%3A%2F%2Fopen.demonii.com%3A1337&amp;tr=udp%3A%2F%2Ftracker.coppersurfer.tk%3A6969&amp;tr=udp%3A%2F%2Fexodus.desync.com%3A6969","seeders":9,"leechers":0,"uploader":"jmanwf","files":-1,"time":1409241344,"description":"Gary and Ricci rock the house shocking Vicky and Charlotte\n\n\n\nEpisode number: 8x6\nAirdate: Tuesday August 26th, 2014\n\n\n\nFormat : MPEG-4\nFormat profile : Base Media / Version 2\nCodec ID : mp42\nFile size : 1.49 GiB\nDuration : 42mn 13s\nOverall bit rate mode : Variable\nOverall bit rate : 5 048 Kbps\nMovie name : 806\nAlbum : Geordie Shore, Season 8\nPart/Position : 1\nPart/Total : 1\nTrack name/Position : 6\nTrack name/Total : 17\nPerformer : Geordie Shore\nGenre : Reality TV\nVideo\nID : 2\nFormat : AVC\nFormat/Info : Advanced Video Codec\nFormat profile : &lt;a class=&quot;__cf_email__&quot; href=&quot;/cdn-cgi/l/email-protection&quot; data-cfemail=&quot;430b2a242b030f776d73&quot;&gt;[email&amp;#160;protected]&lt;/a&gt;&lt;script cf-hash='f9e31' type=&quot;text/javascript&quot;&gt;\n/* &lt;![CDATA[ */!function(){try{var t=&quot;currentScript&quot;in document?document.currentScript:function(){for(var t=document.getElementsByTagName(&quot;script&quot;),e=t.length;e--;)if(t[e].getAttribute(&quot;cf-hash&quot;))return t[e]}();if(t&amp;&amp;t.previousSibling){var e,r,n,i,c=t.previousSibling,a=c.getAttribute(&quot;data-cfemail&quot;);if(a){for(e=&quot;&quot;,r=parseInt(a.substr(0,2),16),n=2;a.length-n;n+=2)i=parseInt(a.substr(n,2),16)^r,e+=String.fromCharCode(i);e=document.createTextNode(e),c.parentNode.replaceChild(e,c)}}}catch(u){}}();/* ]]&gt; */&lt;/script&gt;\nFormat settings, CABAC : Yes\nFormat settings, ReFrames : 4 frames\nCodec ID : avc1\nCodec ID/Info : Advanced Video Coding\nDuration : 42mn 13s\nBit rate : 4 916 Kbps\nWidth : 1 920 pixels\nHeight : 1 080 pixels\nDisplay aspect ratio : 16:9\nFrame rate : 25.000 fps\nColor space : YUV\nChroma subsampling : 4:2:0\nBit depth : 8 bits\nScan type : Progressive\nBits/(Pixel*Frame) : 0.095\nStream size : 1.45 GiB (97%)\nLanguage : English\nEncoded date : UTC 2014-08-28 04:33:22\nTagged date : UTC 2014-08-28 04:34:46\nColor primaries : BT.709\nTransfer characteristics : BT.709\nMatrix coefficients : BT.709\n\nAudio\nID : 1\nFormat : AAC\nFormat/Info : Advanced Audio Codec\nFormat profile : LC\nCodec ID : 40\nDuration : 42mn 13s\nBit rate mode : Variable\nBit rate : 127 Kbps\nMaximum bit rate : 200 Kbps\nChannel(s) : 2 channels\nChannel positions : Front: L R\nSampling rate : 48.0 KHz\nCompression mode : Lossy\nStream size : 38.5 MiB (3%)\nLanguage : English\nEncoded date : UTC 2014-08-28 04:30:55\nTagged date : UTC 2014-08-28 04:33:21","torrent":{"xt":"urn:btih:a6d684bcc8e598dd6bc0734f10f1fd982e2f8778","amp;dn":"Geordie.Shore.S08E06+1080P+WEB-DL","amp;tr":["udp%3A%2F%2Ftracker.openbittorrent.com%3A80","udp%3A%2F%2Fopen.demonii.com%3A1337","udp%3A%2F%2Ftracker.coppersurfer.tk%3A6969","udp%3A%2F%2Fexodus.desync.com%3A6969"],"infoHash":"a6d684bcc8e598dd6bc0734f10f1fd982e2f8778","infoHashBuffer":{"type":"Buffer","data":[166,214,132,188,200,229,152,221,107,192,115,79,16,241,253,152,46,47,135,120]},"announce":[],"urlList":[]}}